<svg id="Layer_1" data-name="Layer 1" xmlns="http://www.w3.org/2000/svg" viewBox="0 0 1080 1080"><defs><style>.cls-1{opacity:0.8;}.cls-2{fill:#000100;}.cls-3,.cls-5{fill:#fff;stroke:#fff;stroke-miterlimit:10;}.cls-4{fill:#e1162c;}.cls-5{stroke-width:2px;}</style></defs><g class="cls-1"><rect class="cls-2" width="1080" height="1080"/></g><path class="cls-3" d="M218.92,577.32H182.73l-15.54-40.67H156.9v40.67H124.25V471h55.56q18.39,0,28.55,8.61t10.17,22.72a34,34,0,0,1-3.74,16.24q-3.73,7.05-15.11,12.43Zm-62-63.42h13.95q6.15,0,9.89-2.58a8.56,8.56,0,0,0,3.74-7.55q0-10.22-12.54-10.21h-15Z"/><path class="cls-3" d="M314.37,551.92v25.4h-80V471h80v24.55h-48v15.43h38.8v23.6h-38.8v17.38Z"/><path class="cls-3" d="M327.31,577.32V471h41.14q26.81,0,40.13,15.9a55.54,55.54,0,0,1,13.32,36.77q0,23.85-14.3,38.77t-37.13,14.92ZM360,552.86h8.49q8.1,0,13.67-7.88t5.58-21.42q0-11.61-4.95-20t-14.3-8.41H360Z"/><path class="cls-3" d="M538.26,551.22v26.1H463.69V471h32.65v80.26Z"/><path class="cls-3" d="M767.18,471l-33,106.36H700.9L666.39,471H700.8l16.83,58q1.73,5.15,3,10.13L740.34,471Z"/><path class="cls-3" d="M829.88,577.32l-6-21H795.38l-6.39,21h-26.5L795.32,471h34.52L863.2,577.32Zm-29-44.18h17.21l-8.61-30.85Z"/><polygon class="cls-4" points="554 507.36 610.16 455.65 665.96 507.63 665.96 573.98 610.16 521.01 554.2 573.98 554.2 551.51 609.68 501.31 650.21 538.11 650.21 514.41 610.16 476.59 554 529.25 554 507.36"/><path class="cls-5" d="M929.67,514.62q-12.17-4.65-18.39-7.3-6.22-3.22-6.59-6.87a7.77,7.77,0,0,1,3.08-7.3,13.2,13.2,0,0,1,8-2.51,12,12,0,0,1,8.15,2.51q3.72,3.08,3.73,9.23h23.33v-1.93a27.34,27.34,0,0,0-9.66-21.54Q932,471,915.79,471t-25.56,8a27.34,27.34,0,0,0-9.66,21.54q0,12,10.45,19.54,6,4.37,21.12,9.81,9.09,3.21,13,5.72,5.5,3.59,5.51,8.16a10.91,10.91,0,0,1-4.79,9.23,17.61,17.61,0,0,1-10.45,3.29,14.81,14.81,0,0,1-10.45-3.57q-4.73-4.36-4.73-13h-23.4q.86,37.65,39.51,37.65,16.4,0,27.7-9.73,10.74-9.32,10.73-23.91Q954.72,524.44,929.67,514.62Z"/><path class="cls-4" d="M486.6,613.14a11.22,11.22,0,1,1-3.29-7.93A10.8,10.8,0,0,1,486.6,613.14Zm-11.22-8a8,8,0,1,0,5.67,2.34A7.72,7.72,0,0,0,475.38,605.13Z"/><path class="cls-4" d="M503.75,603.53a1.6,1.6,0,0,1,2.73-1.13,1.55,1.55,0,0,1,.47,1.13v1.3a10.41,10.41,0,0,1,17.62,7.51v10.41a1.55,1.55,0,0,1-.47,1.13,1.6,1.6,0,0,1-2.73-1.13V612.34a7.21,7.21,0,1,0-14.42,0v10.41a1.55,1.55,0,0,1-.47,1.13,1.6,1.6,0,0,1-2.73-1.13Z"/><path class="cls-4" d="M541.72,593.92a1.53,1.53,0,0,1,.47-1.14,1.59,1.59,0,0,1,2.26,0,1.57,1.57,0,0,1,.47,1.14v27.23h1.6a1.6,1.6,0,0,1,1.61,1.6,1.55,1.55,0,0,1-.47,1.13,1.53,1.53,0,0,1-1.14.47h-3.2a1.6,1.6,0,0,1-1.6-1.6Z"/><path class="cls-4" d="M570.48,597.12a2,2,0,1,1-.59-1.41A1.93,1.93,0,0,1,570.48,597.12Zm-3.61,6.41a1.61,1.61,0,0,1,2.74-1.13,1.55,1.55,0,0,1,.47,1.13v19.22a1.55,1.55,0,0,1-.47,1.13,1.53,1.53,0,0,1-1.13.47,1.62,1.62,0,0,1-1.61-1.6Z"/><path class="cls-4" d="M588.83,603.53a1.55,1.55,0,0,1,.47-1.13,1.53,1.53,0,0,1,1.13-.47,1.6,1.6,0,0,1,1.6,1.6v1.3a10.42,10.42,0,0,1,17.63,7.51v10.41a1.6,1.6,0,0,1-1.61,1.6,1.53,1.53,0,0,1-1.13-.47,1.55,1.55,0,0,1-.47-1.13V612.34a7.21,7.21,0,0,0-14.42,0v10.41a1.6,1.6,0,0,1-1.6,1.6,1.53,1.53,0,0,1-1.13-.47,1.55,1.55,0,0,1-.47-1.13Z"/><path class="cls-4" d="M644.18,618.91a1.59,1.59,0,0,1,1.61,1.6,1.62,1.62,0,0,1-.46,1.14,11.23,11.23,0,1,1,3.9-8.51,1.55,1.55,0,0,1-.47,1.13,1.51,1.51,0,0,1-1.13.47H630.15a8,8,0,0,0,7.87,6.41,7.53,7.53,0,0,0,5.16-1.9A1.59,1.59,0,0,1,644.18,618.91Zm1.71-7.37a8,8,0,0,0-13.54-4.07,7.65,7.65,0,0,0-2.2,4.07Z"/><path class="cls-4" d="M696.3,613.14a7.11,7.11,0,0,1-2.54-1.42,4.58,4.58,0,0,1-1.42-3.39,4.73,4.73,0,0,1,1.48-3.46,10.07,10.07,0,0,1,7.53-2.94,11.15,11.15,0,0,1,8.61,4,1.36,1.36,0,0,1,.3.94,1.55,1.55,0,0,1-.47,1.13,1.51,1.51,0,0,1-1.13.47,1.42,1.42,0,0,1-1.06-.41l-.58-.61a7.72,7.72,0,0,0-5.67-2.34,7,7,0,0,0-5.31,2.08,2.11,2.11,0,0,0-.48,1.38,1.37,1.37,0,0,0,1,1.28l9.86,3.27a7.11,7.11,0,0,1,2.54,1.42,4.58,4.58,0,0,1,1.42,3.39,4.73,4.73,0,0,1-1.48,3.46,10.07,10.07,0,0,1-7.53,2.94,11.12,11.12,0,0,1-8.61-4,1.57,1.57,0,0,1-.3-.94,1.62,1.62,0,0,1,1.6-1.61,1.4,1.4,0,0,1,1.06.42l.58.61a7.74,7.74,0,0,0,5.67,2.34,7,7,0,0,0,5.31-2.08,2.12,2.12,0,0,0,.48-1.39,1.39,1.39,0,0,0-1-1.28Z"/><path class="cls-4" d="M744.89,618.91a1.61,1.61,0,0,1,1.14,2.74,11.23,11.23,0,1,1,3.9-8.51,1.59,1.59,0,0,1-1.6,1.6H730.85a8,8,0,0,0,7.87,6.41,7.58,7.58,0,0,0,5.17-1.9A1.57,1.57,0,0,1,744.89,618.91Zm1.7-7.37a8,8,0,0,0-15.74,0Z"/><path class="cls-4" d="M767.08,603.53a1.55,1.55,0,0,1,.47-1.13,1.53,1.53,0,0,1,1.13-.47,1.6,1.6,0,0,1,1.61,1.6v1.76a10.9,10.9,0,0,1,8-3.36,11.12,11.12,0,0,1,4.3.8,2,2,0,0,1,.66.42,1.58,1.58,0,0,1,.46,1.14,1.51,1.51,0,0,1-.47,1.13,1.55,1.55,0,0,1-1.13.47,1.53,1.53,0,0,1-.7-.16,8,8,0,0,0-3.12-.6,8,8,0,0,0-8,8v9.61a1.6,1.6,0,0,1-1.61,1.6,1.53,1.53,0,0,1-1.13-.47,1.55,1.55,0,0,1-.47-1.13Z"/><path class="cls-4" d="M811.8,623.91a1.67,1.67,0,0,1-2.28,0,1.09,1.09,0,0,1-.26-.38l-8.89-19.36a1.59,1.59,0,0,1-.12-.62,1.55,1.55,0,0,1,.47-1.13,1.53,1.53,0,0,1,1.13-.47,1.58,1.58,0,0,1,1.14.46,1.42,1.42,0,0,1,.3.42l7.37,16.1,7.37-16.1a1.29,1.29,0,0,1,.32-.42,1.61,1.61,0,0,1,2.73,1.14,1.59,1.59,0,0,1-.12.62l-8.89,19.36A1.16,1.16,0,0,1,811.8,623.91Z"/><path class="cls-4" d="M843.43,597.12a1.93,1.93,0,0,1-.59,1.41,2,2,0,1,1,0-2.82A1.93,1.93,0,0,1,843.43,597.12Zm-3.6,6.41a1.6,1.6,0,0,1,2.73-1.13,1.55,1.55,0,0,1,.47,1.13v19.22a1.55,1.55,0,0,1-.47,1.13,1.6,1.6,0,0,1-2.73-1.13Z"/><path class="cls-4" d="M879.2,618.87a1.6,1.6,0,0,1,1.6,1.6,1.64,1.64,0,0,1-.5,1.18,11.21,11.21,0,1,1,0-17,1.57,1.57,0,0,1,.56,1.24,1.51,1.51,0,0,1-.47,1.13,1.61,1.61,0,0,1-2.15.11,8,8,0,0,0-13.26,6,8,8,0,0,0,13.24,6.05A1.54,1.54,0,0,1,879.2,618.87Z"/><path class="cls-4" d="M915.53,618.91a1.58,1.58,0,0,1,1.13.46,1.55,1.55,0,0,1,.47,1.14,1.61,1.61,0,0,1-.45,1.14,11.22,11.22,0,1,1,3.9-8.51,1.55,1.55,0,0,1-.47,1.13,1.53,1.53,0,0,1-1.13.47H901.49a8.06,8.06,0,0,0,7.87,6.41,7.54,7.54,0,0,0,5.17-1.9A1.59,1.59,0,0,1,915.53,618.91Zm1.7-7.37a8,8,0,0,0-13.53-4.07,7.74,7.74,0,0,0-2.21,4.07Z"/><path class="cls-4" d="M941.69,613.14a7.11,7.11,0,0,1-2.54-1.42,4.58,4.58,0,0,1-1.42-3.39,4.73,4.73,0,0,1,1.48-3.46,10.07,10.07,0,0,1,7.53-2.94,11.15,11.15,0,0,1,8.61,4,1.36,1.36,0,0,1,.3.94,1.55,1.55,0,0,1-.47,1.13,1.51,1.51,0,0,1-1.13.47,1.42,1.42,0,0,1-1.06-.41l-.58-.61a7.75,7.75,0,0,0-5.67-2.34,7,7,0,0,0-5.31,2.08,2.11,2.11,0,0,0-.48,1.38,1.37,1.37,0,0,0,1,1.28l9.85,3.27a7.08,7.08,0,0,1,2.55,1.42,4.58,4.58,0,0,1,1.42,3.39,4.73,4.73,0,0,1-1.48,3.46,10.07,10.07,0,0,1-7.53,2.94,11.09,11.09,0,0,1-8.61-4,1.57,1.57,0,0,1-.3-.94,1.62,1.62,0,0,1,1.6-1.61,1.4,1.4,0,0,1,1.06.42l.58.61a7.72,7.72,0,0,0,5.67,2.34,7,7,0,0,0,5.31-2.08,2.11,2.11,0,0,0,.47-1.39,1.36,1.36,0,0,0-1-1.28Z"/></svg>