<svg id="Layer_1" data-name="Layer 1" xmlns="http://www.w3.org/2000/svg" viewBox="0 0 1920 1144"><defs><style>.cls-1{fill:#000100;}.cls-2,.cls-4{fill:#fff;stroke:#fff;stroke-miterlimit:10;}.cls-3{fill:#e1162c;}.cls-4{stroke-width:2px;}</style></defs><rect class="cls-1" width="1920" height="1144"/><path class="cls-2" d="M408.76,636.05H346.63L320,566.23H302.29v69.82H246.24V453.52h95.38q31.58,0,49,14.79t17.45,39a58.33,58.33,0,0,1-6.42,27.88q-6.39,12.1-25.94,21.34ZM302.32,527.17h23.95q10.56,0,17-4.43a14.68,14.68,0,0,0,6.42-13q0-17.53-21.52-17.53H302.39Z"/><path class="cls-2" d="M572.63,592.44v43.61H435.29V453.52H572.63v42.15H490.22v26.49h66.61v40.52H490.22v29.83Z"/><path class="cls-2" d="M594.84,636.05V453.52h70.63q46,0,68.9,27.3A95.35,95.35,0,0,1,757.23,544q0,40.93-24.55,66.56t-63.74,25.61Zm56.13-42h14.57q13.9,0,23.47-13.53t9.58-36.77q0-19.93-8.5-34.34T665.54,495H651Z"/><path class="cls-2" d="M957,591.24v44.81H829V453.52h56V591.31Z"/><path class="cls-2" d="M1350,453.52l-56.66,182.6h-57.13L1177,453.52h59l28.89,99.58q3,8.83,5.15,17.39l33.84-117Z"/><path class="cls-2" d="M1457.64,636.05l-10.3-36h-48.93l-11,36h-45.5l56.37-182.53h59.26l57.27,182.53Zm-49.79-75.85h29.55l-14.78-53Z"/><polygon class="cls-3" points="984.02 515.95 1080.43 427.17 1176.23 516.41 1176.23 630.32 1080.43 539.38 984.36 630.32 984.36 591.74 1079.61 505.56 1149.19 568.74 1149.19 528.05 1080.43 463.12 984.02 553.53 984.02 515.95"/><path class="cls-4" d="M1629,528.41q-20.89-8-31.57-12.53-10.68-5.53-11.31-11.8a13.34,13.34,0,0,1,5.29-12.53,22.7,22.7,0,0,1,13.73-4.31,20.65,20.65,0,0,1,14,4.31q6.39,5.29,6.41,15.85h40v-3.32a47,47,0,0,0-16.59-37q-16-13.57-43.83-13.58t-43.88,13.74a47,47,0,0,0-16.58,37q0,20.6,17.94,33.54,10.31,7.5,36.26,16.84,15.6,5.52,22.32,9.82,9.43,6.16,9.46,14a18.73,18.73,0,0,1-8.23,15.85,30.27,30.27,0,0,1-17.94,5.65,25.45,25.45,0,0,1-17.94-6.13q-8.11-7.48-8.12-22.32h-40.17q1.47,64.63,67.83,64.64,28.15,0,47.55-16.71,18.43-16,18.42-41Q1672,545.27,1629,528.41Z"/><path class="cls-3" d="M868.31,697.54a19.26,19.26,0,1,1-5.65-13.61A18.54,18.54,0,0,1,868.31,697.54Zm-19.26-13.73a13.74,13.74,0,1,0,9.73,4A13.32,13.32,0,0,0,849.05,683.81Z"/><path class="cls-3" d="M897.75,681.05a2.74,2.74,0,0,1,4.69-1.94,2.67,2.67,0,0,1,.8,1.94v2.23a17.87,17.87,0,0,1,30.25,12.89V714a2.67,2.67,0,0,1-.8,1.94A2.75,2.75,0,0,1,928,714V696.17a12.38,12.38,0,0,0-24.76,0V714a2.67,2.67,0,0,1-.8,1.94,2.75,2.75,0,0,1-4.69-1.94Z"/><path class="cls-3" d="M962.94,664.55a2.63,2.63,0,0,1,.8-2,2.72,2.72,0,0,1,3.86,0h0a2.68,2.68,0,0,1,.81,2V711.3h2.75a2.75,2.75,0,0,1,2.76,2.73h0a2.77,2.77,0,0,1-2.76,2.75h-5.5a2.75,2.75,0,0,1-2.75-2.75h0Z"/><path class="cls-3" d="M1012.31,670a3.44,3.44,0,1,1-3.46-3.42h0a3.48,3.48,0,0,1,2.44,1A3.33,3.33,0,0,1,1012.31,670Zm-6.2,11a2.76,2.76,0,0,1,4.71-1.94,2.67,2.67,0,0,1,.8,1.94v33a2.67,2.67,0,0,1-.8,1.94,2.64,2.64,0,0,1-1.94.81,2.79,2.79,0,0,1-2.77-2.75Z"/><path class="cls-3" d="M1043.81,681.05a2.75,2.75,0,0,1,5.5,0v2.23a17.88,17.88,0,0,1,30.26,12.89V714a2.76,2.76,0,0,1-2.74,2.75h0a2.77,2.77,0,0,1-2.75-2.75V696.17a12.38,12.38,0,0,0-24.75,0V714a2.75,2.75,0,0,1-2.75,2.75h0a2.64,2.64,0,0,1-1.94-.81,2.67,2.67,0,0,1-.81-1.94Z"/><path class="cls-3" d="M1138.83,707.45a2.74,2.74,0,0,1,2.77,2.7v.05a2.78,2.78,0,0,1-.79,1.95,19.3,19.3,0,1,1,6.69-14.61,2.67,2.67,0,0,1-.8,1.94,2.55,2.55,0,0,1-1.94.81h-30a13.74,13.74,0,0,0,13.51,11,13,13,0,0,0,8.86-3.27A2.7,2.7,0,0,1,1138.83,707.45Zm2.94-12.65a13.73,13.73,0,0,0-23.24-7,13.19,13.19,0,0,0-3.78,7Z"/><path class="cls-3" d="M1228.31,697.54a12.26,12.26,0,0,1-4.36-2.43,7.9,7.9,0,0,1-2.44-5.82,8.12,8.12,0,0,1,2.54-5.94,17.31,17.31,0,0,1,13-5.05,19.1,19.1,0,0,1,14.78,6.87,2.35,2.35,0,0,1,.52,1.61,2.77,2.77,0,0,1-2.75,2.75,2.42,2.42,0,0,1-1.82-.71l-1-1a13.26,13.26,0,0,0-9.74-4,12,12,0,0,0-9.11,3.57,3.67,3.67,0,0,0-.83,2.37,2.36,2.36,0,0,0,1.72,2.2l16.93,5.61a12,12,0,0,1,4.36,2.44,7.82,7.82,0,0,1,2.43,5.82,8,8,0,0,1-2.54,5.94,17.34,17.34,0,0,1-12.92,5,19.14,19.14,0,0,1-14.79-6.87,2.69,2.69,0,0,1-.51-1.62,2.78,2.78,0,0,1,2.75-2.76,2.4,2.4,0,0,1,1.82.72l1,1a13.34,13.34,0,0,0,9.74,4,12,12,0,0,0,9.11-3.57,3.65,3.65,0,0,0,.83-2.39,2.4,2.4,0,0,0-1.72-2.2Z"/><path class="cls-3" d="M1311.73,707.45a2.76,2.76,0,0,1,2,4.7,19.3,19.3,0,1,1,6.69-14.61,2.73,2.73,0,0,1-2.71,2.75h-30a13.74,13.74,0,0,0,13.51,11A13,13,0,0,0,1310,708,2.77,2.77,0,0,1,1311.73,707.45Zm2.92-12.65a13.73,13.73,0,0,0-27,0Z"/><path class="cls-3" d="M1349.82,681.05a2.72,2.72,0,0,1,.81-1.94,2.64,2.64,0,0,1,1.94-.81,2.75,2.75,0,0,1,2.77,2.73h0v3a18.71,18.71,0,0,1,13.73-5.77,19,19,0,0,1,7.38,1.37,3.63,3.63,0,0,1,1.13.72,2.67,2.67,0,0,1,.79,2,2.57,2.57,0,0,1-.8,1.94,2.73,2.73,0,0,1-3.14.53,14.05,14.05,0,0,0-5.36-1,13.73,13.73,0,0,0-13.73,13.73h0V714a2.76,2.76,0,0,1-2.75,2.74h0a2.67,2.67,0,0,1-1.94-.8,2.72,2.72,0,0,1-.81-1.94Z"/><path class="cls-3" d="M1426.6,716a2.87,2.87,0,0,1-3.92,0,1.83,1.83,0,0,1-.44-.65L1407,682.15a2.76,2.76,0,0,1,2.54-3.82,2.75,2.75,0,0,1,2,.79,2.5,2.5,0,0,1,.52.73l12.65,27.63,12.65-27.63a2.2,2.2,0,0,1,.55-.73,2.78,2.78,0,0,1,4.48,3.07l-15.26,33.23A1.73,1.73,0,0,1,1426.6,716Z"/><path class="cls-3" d="M1480.9,670a3.34,3.34,0,0,1-1,2.42,3.43,3.43,0,1,1,0-4.85h0A3.36,3.36,0,0,1,1480.9,670Zm-6.18,11a2.74,2.74,0,0,1,4.69-1.94,2.67,2.67,0,0,1,.8,1.94v33a2.67,2.67,0,0,1-.8,1.94,2.75,2.75,0,0,1-4.69-1.94Z"/><path class="cls-3" d="M1542.31,707.38a2.77,2.77,0,0,1,1.89,4.77,19.25,19.25,0,1,1,0-29.18,2.71,2.71,0,0,1,1,2.13,2.64,2.64,0,0,1-.81,1.94,2.76,2.76,0,0,1-3.69.19,13.71,13.71,0,1,0,0,20.68A2.66,2.66,0,0,1,1542.31,707.38Z"/><path class="cls-3" d="M1604.68,707.45a2.71,2.71,0,0,1,1.94.79,2.63,2.63,0,0,1,.8,2,2.68,2.68,0,0,1-.77,2,19.23,19.23,0,1,1,6.7-14.61,2.77,2.77,0,0,1-2.75,2.75h-30a13.85,13.85,0,0,0,13.52,11A13,13,0,0,0,1603,708,2.73,2.73,0,0,1,1604.68,707.45Zm2.92-12.65a13.74,13.74,0,0,0-23.23-7,13.36,13.36,0,0,0-3.8,7Z"/><path class="cls-3" d="M1649.59,697.54a12.17,12.17,0,0,1-4.36-2.43,7.83,7.83,0,0,1-2.44-5.82,8.12,8.12,0,0,1,2.54-5.94,17.25,17.25,0,0,1,12.93-5.05,19.13,19.13,0,0,1,14.78,6.87,2.29,2.29,0,0,1,.51,1.61,2.67,2.67,0,0,1-.8,1.94,2.64,2.64,0,0,1-1.94.81,2.42,2.42,0,0,1-1.82-.71l-1-1a13.26,13.26,0,0,0-9.73-4,12,12,0,0,0-9.12,3.57,3.6,3.6,0,0,0-.82,2.37A2.36,2.36,0,0,0,1650,692l16.91,5.61a12.09,12.09,0,0,1,4.37,2.44,7.83,7.83,0,0,1,2.44,5.82,8.14,8.14,0,0,1-2.54,5.94,17.36,17.36,0,0,1-12.93,5,19,19,0,0,1-14.78-6.87,2.69,2.69,0,0,1-.51-1.62,2.78,2.78,0,0,1,2.74-2.76,2.4,2.4,0,0,1,1.82.72l1,1a13.22,13.22,0,0,0,9.73,4,12.06,12.06,0,0,0,9.12-3.57,3.7,3.7,0,0,0,.81-2.39,2.36,2.36,0,0,0-1.72-2.2Z"/></svg>